<svg preserveAspectRatio="none" width="100%" height="100%" overflow="visible" style="display: block;" viewBox="0 0 16 16" fill="none" xmlns="http://www.w3.org/2000/svg">
<g id="SVG">
<path id="Vector" d="M14.2818 7.28027C14.4012 7.22762 14.5024 7.14112 14.5731 7.03147C14.6438 6.92183 14.6807 6.79386 14.6794 6.66343C14.678 6.53299 14.6384 6.40582 14.5655 6.29766C14.4926 6.1895 14.3896 6.10511 14.2692 6.05494L8.55515 3.45227C8.38144 3.37304 8.19274 3.33203 8.00182 3.33203C7.81089 3.33203 7.62219 3.37304 7.44849 3.45227L1.73515 6.05227C1.61646 6.10425 1.5155 6.18969 1.4446 6.29815C1.3737 6.4066 1.33594 6.53336 1.33594 6.66294C1.33594 6.79251 1.3737 6.91927 1.4446 7.02773C1.5155 7.13618 1.61646 7.22162 1.73515 7.2736L7.44849 9.87894C7.62219 9.95817 7.81089 9.99917 8.00182 9.99917C8.19274 9.99917 8.38144 9.95817 8.55515 9.87894L14.2818 7.28027Z" stroke="var(--stroke-0, #E3000F)" stroke-width="1.33333" stroke-linecap="round" stroke-linejoin="round"/>
<path id="Vector_2" d="M14.668 6.66797V10.668" stroke="var(--stroke-0, #E3000F)" stroke-width="1.33333" stroke-linecap="round" stroke-linejoin="round"/>
<path id="Vector_3" d="M4 8.33203V10.6654C4 11.1958 4.42143 11.7045 5.17157 12.0796C5.92172 12.4547 6.93913 12.6654 8 12.6654C9.06087 12.6654 10.0783 12.4547 10.8284 12.0796C11.5786 11.7045 12 11.1958 12 10.6654V8.33203" stroke="var(--stroke-0, #E3000F)" stroke-width="1.33333" stroke-linecap="round" stroke-linejoin="round"/>
</g>
</svg>
