<svg preserveAspectRatio="none" width="100%" height="100%" overflow="visible" style="display: block;" viewBox="0 0 24 24" fill="none" xmlns="http://www.w3.org/2000/svg">
<g id="SVG">
<path id="Vector" d="M21 16H17C16.4477 16 16 16.4477 16 17V21C16 21.5523 16.4477 22 17 22H21C21.5523 22 22 21.5523 22 21V17C22 16.4477 21.5523 16 21 16Z" stroke="var(--stroke-0, #004B93)" stroke-width="1.5" stroke-linecap="round" stroke-linejoin="round"/>
<path id="Vector_2" d="M7 16H3C2.44772 16 2 16.4477 2 17V21C2 21.5523 2.44772 22 3 22H7C7.55228 22 8 21.5523 8 21V17C8 16.4477 7.55228 16 7 16Z" stroke="var(--stroke-0, #004B93)" stroke-width="1.5" stroke-linecap="round" stroke-linejoin="round"/>
<path id="Vector_3" d="M14 2H10C9.44772 2 9 2.44772 9 3V7C9 7.55228 9.44772 8 10 8H14C14.5523 8 15 7.55228 15 7V3C15 2.44772 14.5523 2 14 2Z" stroke="var(--stroke-0, #004B93)" stroke-width="1.5" stroke-linecap="round" stroke-linejoin="round"/>
<path id="Vector_4" d="M5 16V13C5 12.7348 5.10536 12.4804 5.29289 12.2929C5.48043 12.1054 5.73478 12 6 12H18C18.2652 12 18.5196 12.1054 18.7071 12.2929C18.8946 12.4804 19 12.7348 19 13V16" stroke="var(--stroke-0, #004B93)" stroke-width="1.5" stroke-linecap="round" stroke-linejoin="round"/>
<path id="Vector_5" d="M12 12V8" stroke="var(--stroke-0, #004B93)" stroke-width="1.5" stroke-linecap="round" stroke-linejoin="round"/>
</g>
</svg>
