<svg preserveAspectRatio="none" width="100%" height="100%" overflow="visible" style="display: block;" viewBox="0 0 20 20" fill="none" xmlns="http://www.w3.org/2000/svg">
<g id="SVG">
<path id="Vector" d="M10.4995 18.1671C12.0495 16.8288 16.6654 12.4955 16.6654 8.33464C16.6654 6.56653 15.963 4.87083 14.7127 3.62059C13.4625 2.37035 11.7668 1.66797 9.9987 1.66797C8.23059 1.66797 6.5349 2.37035 5.28465 3.62059C4.03441 4.87083 3.33203 6.56653 3.33203 8.33464C3.33203 12.4955 7.94786 16.8288 9.49786 18.1671C9.64226 18.2757 9.81803 18.3344 9.9987 18.3344C10.1794 18.3344 10.3551 18.2757 10.4995 18.1671Z" stroke="var(--stroke-0, #E3000F)" stroke-width="1.66667" stroke-linecap="round" stroke-linejoin="round"/>
<path id="Vector_2" d="M10 10.832C11.3807 10.832 12.5 9.71274 12.5 8.33203C12.5 6.95132 11.3807 5.83203 10 5.83203C8.61929 5.83203 7.5 6.95132 7.5 8.33203C7.5 9.71274 8.61929 10.832 10 10.832Z" stroke="var(--stroke-0, #E3000F)" stroke-width="1.66667" stroke-linecap="round" stroke-linejoin="round"/>
</g>
</svg>
